<svg class="icon github" id="Layer_1" data-name="Layer 1" xmlns="http://www.w3.org/2000/svg" viewBox="0 0 156 156"><defs></defs><title>github</title><path class="cls-1" d="M133.15,133.15a77.64,77.64,0,0,1-33.08,19.68A3.92,3.92,0,0,1,99,150V129.35c0-7.06-2.52-11.73-5.17-14,16.77-1.89,34.56-8.33,34.56-37.34A28.84,28.84,0,0,0,120.6,57.7c.76-2,3.4-9.71-.76-20.06,0,0-6.31-2-20.81,7.7a72.32,72.32,0,0,0-37.85,0c-14.5-9.71-20.81-7.7-20.81-7.7-4.16,10.35-1.51,18-.76,20.06A29.42,29.42,0,0,0,31.79,78c0,29,17.66,35.45,34.57,37.34-2.27,1.89-4.17,5.3-4.92,10.09-4.29,2-15.27,5.3-22-6.18,0,0-4-7.32-11.61-7.82,0,0-7.44-.13-.5,4.54,0,0,4.92,2.4,8.32,11.1,0,0,4.42,13.5,25.48,9v14a3.59,3.59,0,0,1-2.31,3.59,78,78,0,1,1,74.28-20.48Z"></path></svg>
