<svg width="38px" height="38px" viewBox="0 0 38 38" version="1.1" xmlns="http://www.w3.org/2000/svg" xmlns:xlink="http://www.w3.org/1999/xlink">
    <g id="Page-1" stroke="none" stroke-width="1"  fill-rule="evenodd">
        <path d="M31.6326887,31.6326887 C24.3962735,38.8691038 12.6637265,38.8691038 5.42731134,31.6326887 C-1.80910378,24.3962735 -1.80910378,12.6637265 5.42731134,5.42731134 C12.6637265,-1.80910378 24.3962735,-1.80910378 31.6326887,5.42731134 C38.8691038,12.6637265 38.8691038,24.3962735 31.6326887,31.6326887 Z M23.4007059,9 L14.4887059,9 C11.4622353,9 9,11.4623529 9,14.4888235 L9,23.4008235 C9,26.4274118 11.4622353,28.8896471 14.4887059,28.8896471 L23.4007059,28.8896471 C26.4274118,28.8896471 28.8896471,26.4272941 28.8896471,23.4008235 L28.8896471,14.4888235 C28.8897647,11.4623529 26.4274118,9 23.4007059,9 Z M27.1250588,23.4008235 C27.1250588,25.4543529 25.4543529,27.1249412 23.4008235,27.1249412 L14.4887059,27.1249412 C12.4352941,27.1250588 10.7647059,25.4543529 10.7647059,23.4008235 L10.7647059,14.4888235 C10.7647059,12.4354118 12.4352941,10.7647059 14.4887059,10.7647059 L23.4007059,10.7647059 C25.4542353,10.7647059 27.1249412,12.4354118 27.1249412,14.4888235 L27.1249412,23.4008235 L27.1250588,23.4008235 Z M18.9448235,13.82 C16.1188235,13.82 13.8197647,16.1190588 13.8197647,18.9450588 C13.8197647,21.7709412 16.1188235,24.0698824 18.9448235,24.0698824 C21.7708235,24.0698824 24.0698824,21.7709412 24.0698824,18.9450588 C24.0698824,16.1190588 21.7708235,13.82 18.9448235,13.82 Z M18.9448235,22.3050588 C17.092,22.3050588 15.5844706,20.7977647 15.5844706,18.9449412 C15.5844706,17.092 17.0918824,15.5845882 18.9448235,15.5845882 C20.7977647,15.5845882 22.3051765,17.092 22.3051765,18.9449412 C22.3051765,20.7977647 20.7976471,22.3050588 18.9448235,22.3050588 Z M24.2848235,12.3236471 C23.9448235,12.3236471 23.6108235,12.4612941 23.3707059,12.7024706 C23.1294118,12.9424706 22.9907059,13.2765882 22.9907059,13.6177647 C22.9907059,13.9578824 23.1295294,14.2918824 23.3707059,14.5330588 C23.6107059,14.7730588 23.9448235,14.9118824 24.2848235,14.9118824 C24.626,14.9118824 24.9589412,14.7730588 25.2001176,14.5330588 C25.4412941,14.2918824 25.5789412,13.9577647 25.5789412,13.6177647 C25.5789412,13.2765882 25.4412941,12.9424706 25.2001176,12.7024706 C24.9601176,12.4612941 24.626,12.3236471 24.2848235,12.3236471 Z" id="Combined-Shape" ></path>
    </g>
</svg>
