<svg width="38px" height="38px" viewBox="0 0 38 38" version="1.1" xmlns="http://www.w3.org/2000/svg" xmlns:xlink="http://www.w3.org/1999/xlink">
    <g id="Page-1" stroke="none" stroke-width="1"  fill-rule="evenodd">
        <path d="M31.6326887,31.6326887 C24.3962735,38.8691038 12.6637265,38.8691038 5.42731134,31.6326887 C-1.80910378,24.3962735 -1.80910378,12.6637265 5.42731134,5.42731134 C12.6637265,-1.80910378 24.3962735,-1.80910378 31.6326887,5.42731134 C38.8691038,12.6637265 38.8691038,24.3962735 31.6326887,31.6326887 Z M26,20.5833889 C26,17.6818264 24.5195284,16.3316675 22.5446658,16.3317015 C20.9506623,16.3317015 20.2385165,17.2498723 19.8397552,17.8926088 L19.8397552,17.9231293 L19.8200304,17.9231293 C19.825759,17.9134213 19.8336685,17.9026233 19.8397552,17.8926088 L19.8397552,16.5536226 L16.8383858,16.5536226 C16.878812,17.4404553 16.8383858,26 16.8383858,26 L19.8400482,26 L19.8400482,20.7245464 C19.8400482,20.4418908 19.860424,20.1608362 19.9395839,19.9589102 C20.156655,19.3940759 20.6500696,18.8101664 21.4791975,18.8101664 C22.5653345,18.8101664 22.9993467,19.6765952 22.9993467,20.9461608 L22.9993467,26 L26,26 L26,20.5833889 Z M13.6985192,12 C12.6716545,12 12,12.7048676 12,13.6317925 C12,14.5385181 12.6522225,15.2647773 13.6586789,15.2647773 L13.6787293,15.2647773 C14.7254817,15.2647773 15.3764673,14.5386543 15.3764673,13.6317925 C15.3567425,12.7048676 14.7254817,12 13.6985192,12 Z M12.1782724,26 L15.1787955,26 L15.1787955,16.5536226 L12.1782724,16.5536226 L12.1782724,26 Z" id="Combined-Shape" ></path>
    </g>
</svg>
