<svg id="Layer_1" data-name="Layer 1" xmlns="http://www.w3.org/2000/svg" viewBox="0 0 156 156"><defs></defs><title>mail</title><path class="cls-1" d="M99.49,30.45l.06,0,0,0Z"/><path class="cls-1" d="M22.85,22.85a78,78,0,1,0,110.31,0A78,78,0,0,0,22.85,22.85ZM136,66.46a6,6,0,0,1,0,8.49l-61,61a6,6,0,0,1-8.49,0L31.61,101.13a5.76,5.76,0,0,1-1.12-1.58,3.55,3.55,0,0,1-.16-.34l0-.35.69-5.6v-.1l6.29-50.28a6.14,6.14,0,0,1,5.34-5.34L93,31.27h0l5.79-.73.67-.09h.11l0,0a5.76,5.76,0,0,1,1.58,1.12Z"/><polygon class="cls-1" points="98.53 31.5 83.32 83.32 31.5 98.53 98.53 31.5"/><path class="cls-1" d="M99.6,30.44l0,0-.06,0Z"/></svg>