<svg id="Layer_1" data-name="Layer 1" xmlns="http://www.w3.org/2000/svg" viewBox="0 0 156 156"><defs><style>.cls-1{fill:#f9b41e;}.cls-2{fill:#fff;}</style></defs><title>phone</title><path class="cls-1" d="M133.16,22.85a78,78,0,1,0,0,110.31A78,78,0,0,0,133.16,22.85Zm-66,102.33a6,6,0,0,1-8.49,0L30.82,97.29a6,6,0,0,1,0-8.49l58-58a6,6,0,0,1,8.49,0l27.89,27.89a6,6,0,0,1,0,8.49Z"/><circle class="cls-2" cx="51.57" cy="104.43" r="5.18" transform="translate(-58.74 67.05) rotate(-45)"/><path class="cls-2" d="M113.36,51.84a.5.5,0,0,1-.71,0l-8.49-8.49a.5.5,0,0,1,.71-.71l8.49,8.49A.5.5,0,0,1,113.36,51.84Z"/><circle class="cls-1" cx="51.57" cy="104.43" r="5.18" transform="translate(-58.74 67.05) rotate(-45)"/><path class="cls-1" d="M113.36,51.84a.5.5,0,0,1-.71,0l-8.49-8.49a.5.5,0,0,1,.71-.71l8.49,8.49A.5.5,0,0,1,113.36,51.84Z"/></svg>